<?xml version="1.0" encoding="utf-8"?>
<!-- Generator: Adobe Illustrator 16.0.0, SVG Export Plug-In . SVG Version: 6.00 Build 0)  -->
<!DOCTYPE svg PUBLIC "-//W3C//DTD SVG 1.1//EN" "http://www.w3.org/Graphics/SVG/1.1/DTD/svg11.dtd">
<svg version="1.1" id="Layer_1" xmlns="http://www.w3.org/2000/svg" xmlns:xlink="http://www.w3.org/1999/xlink" x="0px" y="0px"
	 width="279px" height="128px" viewBox="0 0 279 128" enable-background="new 0 0 279 128" xml:space="preserve">
<g>
	<path fill="#FFFFFF" d="M16.865,101.828v-0.57h0.715c0.617,0,1.088-0.096,1.42-0.291c0.328-0.184,0.568-0.436,0.73-0.764
		c0.092-0.215,0.141-0.854,0.141-1.924V84.621c0-1.055-0.057-1.717-0.178-1.982c-0.109-0.264-0.343-0.494-0.693-0.695
		c-0.355-0.2-0.828-0.291-1.42-0.291h-0.715v-0.573h9.545c2.549,0,4.594,0.336,6.147,1.006c1.89,0.824,3.328,2.084,4.312,3.75
		c0.975,1.678,1.467,3.56,1.467,5.681c0,1.45-0.244,2.803-0.721,4.022c-0.486,1.233-1.107,2.246-1.877,3.051
		c-0.765,0.808-1.64,1.447-2.646,1.935c-0.996,0.479-2.227,0.854-3.668,1.114c-0.637,0.123-1.643,0.191-3.018,0.191L16.865,101.828
		L16.865,101.828z M24.99,82.254v16.184c0,0.857,0.043,1.383,0.125,1.582c0.078,0.185,0.225,0.338,0.422,0.438
		c0.285,0.146,0.693,0.226,1.234,0.226c1.747,0,3.086-0.578,4.012-1.736c1.256-1.576,1.885-4.012,1.885-7.318
		c0-2.654-0.434-4.781-1.287-6.375c-0.686-1.24-1.561-2.096-2.631-2.545C27.994,82.395,26.738,82.242,24.99,82.254"/>
	<path fill="#FFFFFF" d="M48.471,87.156c2.304-0.086,4.17,0.574,5.604,1.969c1.438,1.402,2.158,3.148,2.158,5.244
		c0,1.801-0.533,3.381-1.604,4.738c-1.418,1.809-3.428,2.721-6.02,2.721c-2.603,0-4.603-0.873-6.025-2.596
		c-1.123-1.361-1.684-2.978-1.684-4.847c0-2.1,0.729-3.854,2.19-5.254C44.551,87.73,46.342,87.07,48.471,87.156 M48.6,87.826
		c-1.315,0-2.321,0.658-3.004,1.977c-0.561,1.092-0.846,2.641-0.846,4.676c0,2.412,0.432,4.197,1.297,5.349
		c0.6,0.809,1.451,1.213,2.529,1.213c0.729,0,1.338-0.172,1.834-0.519c0.621-0.451,1.106-1.153,1.451-2.135
		c0.344-0.98,0.524-2.254,0.524-3.826c0-1.869-0.182-3.266-0.533-4.201c-0.358-0.924-0.807-1.577-1.356-1.965
		C49.946,88.008,49.316,87.826,48.6,87.826"/>
	<path fill="#FFFFFF" d="M121.238,87.156c2.303-0.086,4.17,0.574,5.61,1.969c1.435,1.402,2.156,3.148,2.156,5.244
		c0,1.801-0.537,3.381-1.604,4.738c-1.427,1.809-3.433,2.721-6.027,2.721c-2.592,0-4.598-0.873-6.021-2.596
		c-1.118-1.361-1.68-2.978-1.68-4.847c0-2.1,0.728-3.854,2.187-5.254C117.318,87.73,119.115,87.07,121.238,87.156 M121.369,87.826
		c-1.316,0-2.32,0.658-3.008,1.977c-0.56,1.092-0.838,2.641-0.838,4.676c0,2.412,0.428,4.197,1.293,5.349
		c0.606,0.809,1.446,1.213,2.528,1.213c0.732,0,1.341-0.172,1.832-0.519c0.621-0.451,1.107-1.153,1.459-2.135
		c0.342-0.979,0.513-2.254,0.513-3.826c0-1.869-0.177-3.266-0.527-4.201c-0.352-0.924-0.807-1.577-1.35-1.965
		C122.711,88.008,122.088,87.826,121.369,87.826"/>
	<path fill="#FFFFFF" d="M67.811,96.797l3.978-9.65h5.959v0.379h-0.479c-0.428,0-0.772,0.082-1.032,0.229
		c-0.175,0.113-0.322,0.277-0.431,0.527c-0.076,0.174-0.119,0.629-0.119,1.381v9.647c0,0.76,0.043,1.242,0.119,1.424
		c0.08,0.183,0.24,0.355,0.484,0.5c0.246,0.142,0.568,0.207,0.979,0.207h0.479v0.388h-7.652v-0.388h0.478
		c0.432,0,0.774-0.071,1.03-0.223c0.185-0.107,0.322-0.283,0.439-0.531c0.074-0.166,0.117-0.629,0.117-1.377V88.443l-5.617,13.386
		H66.28l-5.705-13.295v10.329c0,0.734,0.02,1.173,0.055,1.345c0.092,0.367,0.303,0.66,0.617,0.896
		c0.311,0.231,0.805,0.34,1.475,0.34v0.387h-5.037v-0.387h0.15c0.328,0.01,0.627-0.039,0.918-0.154
		c0.277-0.115,0.488-0.266,0.639-0.455c0.14-0.191,0.257-0.459,0.33-0.797c0.019-0.084,0.027-0.455,0.027-1.125v-9.248
		c0-0.76-0.041-1.238-0.123-1.428c-0.076-0.187-0.244-0.346-0.488-0.49c-0.243-0.145-0.571-0.219-0.979-0.219h-0.474v-0.379h6.003
		L67.811,96.797z"/>
	<path fill="#FFFFFF" d="M92.918,87.271l7.041,9v-6.24c0-0.873-0.125-1.469-0.371-1.775c-0.336-0.418-0.912-0.621-1.703-0.605
		v-0.379h4.729v0.379c-0.603,0.08-1.01,0.183-1.215,0.302c-0.209,0.135-0.373,0.342-0.488,0.629
		c-0.121,0.272-0.178,0.769-0.178,1.451v11.797h-0.353l-9.649-11.806v9.263c0,0.85,0.192,1.416,0.569,1.715
		c0.379,0.297,0.81,0.451,1.293,0.451h0.343v0.377h-5.089v-0.377c0.783-0.011,1.336-0.179,1.646-0.504
		c0.309-0.324,0.463-0.878,0.463-1.662V89.021l-0.305-0.391c-0.299-0.383-0.574-0.65-0.804-0.77c-0.231-0.123-0.565-0.199-1-0.211
		v-0.379H92.918z"/>
	<path fill="#FFFFFF" d="M135.887,87.271l7.039,9v-6.24c0-0.873-0.121-1.469-0.373-1.775c-0.338-0.418-0.908-0.621-1.701-0.605
		v-0.379h4.736v0.379c-0.606,0.08-1.016,0.183-1.223,0.302c-0.207,0.135-0.365,0.342-0.48,0.629
		c-0.117,0.272-0.178,0.769-0.178,1.451v11.797h-0.357l-9.646-11.806v9.263c0,0.85,0.184,1.416,0.564,1.715
		c0.372,0.297,0.805,0.451,1.288,0.451h0.345v0.377h-5.088v-0.377c0.786-0.011,1.338-0.179,1.647-0.504
		c0.31-0.324,0.463-0.878,0.463-1.662V89.021l-0.307-0.391c-0.309-0.383-0.568-0.65-0.805-0.77c-0.229-0.123-0.568-0.199-1-0.211
		v-0.379H135.887z"/>
	<path fill="#FFFFFF" d="M86.719,101.441v0.387h-8.08v-0.387h0.513c0.444,0,0.809-0.072,1.077-0.226
		c0.197-0.104,0.351-0.28,0.462-0.534c0.077-0.173,0.118-0.632,0.118-1.371v-9.691c0-0.766-0.041-1.236-0.118-1.428
		c-0.089-0.189-0.263-0.354-0.511-0.498c-0.258-0.133-0.602-0.209-1.028-0.209h-0.513v-0.387h8.08v0.387h-0.512
		c-0.441,0-0.811,0.076-1.078,0.229c-0.199,0.1-0.348,0.273-0.463,0.521c-0.082,0.182-0.127,0.641-0.127,1.385v9.691
		c0,0.752,0.045,1.231,0.131,1.416c0.084,0.188,0.26,0.362,0.512,0.508c0.254,0.135,0.597,0.207,1.025,0.207H86.719z"/>
	<path fill="#FFFFFF" d="M112.066,101.441v0.387h-8.084v-0.387h0.52c0.447,0,0.809-0.072,1.084-0.226
		c0.199-0.104,0.344-0.28,0.457-0.534c0.082-0.173,0.121-0.632,0.121-1.371v-9.691c0-0.766-0.039-1.236-0.121-1.428
		c-0.086-0.189-0.252-0.354-0.512-0.498c-0.25-0.133-0.597-0.209-1.029-0.209h-0.52v-0.387h8.084v0.387h-0.507
		c-0.446,0-0.801,0.076-1.077,0.229c-0.193,0.1-0.349,0.273-0.466,0.521c-0.08,0.182-0.121,0.641-0.121,1.385v9.691
		c0,0.752,0.041,1.231,0.13,1.416c0.082,0.188,0.26,0.362,0.506,0.508c0.256,0.135,0.598,0.207,1.028,0.207H112.066z"/>
	<path fill="#FFFFFF" d="M197.135,87.271l7.041,9v-6.24c0-0.873-0.127-1.469-0.369-1.775c-0.348-0.418-0.909-0.621-1.715-0.605
		v-0.379h4.729v0.379c-0.597,0.08-1,0.183-1.211,0.302c-0.207,0.135-0.369,0.342-0.486,0.629c-0.113,0.272-0.174,0.769-0.174,1.451
		v11.797h-0.361l-9.639-11.806v9.263c0,0.85,0.184,1.416,0.565,1.715c0.375,0.297,0.808,0.451,1.295,0.451h0.332v0.377h-5.084
		v-0.377c0.787-0.011,1.336-0.179,1.648-0.504c0.309-0.324,0.461-0.878,0.461-1.662V89.021l-0.303-0.391
		c-0.297-0.383-0.572-0.65-0.804-0.77c-0.235-0.123-0.567-0.199-1.004-0.211v-0.379H197.135z"/>
	<path fill="#FFFFFF" d="M238.68,87.271l7.039,9v-6.24c0-0.873-0.123-1.469-0.371-1.775c-0.344-0.418-0.909-0.621-1.707-0.605
		v-0.379h4.726v0.379c-0.607,0.08-1.006,0.183-1.215,0.302c-0.211,0.135-0.367,0.342-0.492,0.629
		c-0.107,0.272-0.162,0.769-0.162,1.451v11.797h-0.357l-9.649-11.806v9.263c0,0.85,0.19,1.416,0.569,1.715
		c0.38,0.297,0.808,0.451,1.285,0.451h0.34v0.377h-5.075v-0.377c0.782-0.011,1.328-0.179,1.645-0.504
		c0.303-0.324,0.461-0.878,0.461-1.662V89.021l-0.307-0.391c-0.301-0.383-0.572-0.65-0.801-0.77
		c-0.236-0.123-0.57-0.199-0.998-0.211v-0.379H238.68z"/>
	<path fill="#FFFFFF" d="M232.402,101.441v0.387h-8.088v-0.387h0.516c0.449,0,0.807-0.072,1.088-0.226
		c0.193-0.104,0.346-0.28,0.455-0.534c0.082-0.173,0.123-0.632,0.123-1.371v-9.691c0-0.766-0.041-1.236-0.123-1.428
		c-0.088-0.189-0.262-0.354-0.506-0.498c-0.262-0.133-0.604-0.209-1.037-0.209h-0.516v-0.387h8.088v0.387h-0.511
		c-0.45,0-0.811,0.076-1.077,0.229c-0.193,0.1-0.349,0.273-0.468,0.521c-0.086,0.182-0.123,0.641-0.123,1.385v9.691
		c0,0.752,0.044,1.231,0.123,1.416c0.095,0.188,0.267,0.362,0.515,0.508c0.252,0.135,0.59,0.207,1.03,0.207H232.402z"/>
	<path fill="#FFFFFF" d="M174.814,94.564l-0.781,7.264h-18.461v-0.57h0.69c0.603,0,1.091-0.109,1.455-0.322
		c0.267-0.139,0.472-0.375,0.611-0.729c0.113-0.246,0.168-0.877,0.168-1.908V84.68c0-1.061-0.055-1.715-0.168-1.979
		c-0.111-0.26-0.336-0.492-0.682-0.693c-0.343-0.197-0.804-0.293-1.386-0.293h-0.69v-0.568h11.088v0.568h-0.914
		c-0.594,0-1.08,0.104-1.445,0.312c-0.272,0.145-0.479,0.393-0.631,0.738c-0.115,0.239-0.172,0.875-0.172,1.914v13.184
		c0,1.061,0.064,1.734,0.189,2.025c0.118,0.282,0.354,0.5,0.721,0.643c0.254,0.092,0.869,0.137,1.854,0.137h1.734
		c1.102,0,2.029-0.191,2.758-0.58c0.738-0.383,1.373-1,1.91-1.83c0.537-0.834,1.047-2.066,1.529-3.693H174.814L174.814,94.564z"/>
	<path fill="#FFFFFF" d="M182.506,88.055v5.947h0.291c0.939,0,1.617-0.293,2.031-0.869c0.424-0.582,0.69-1.441,0.807-2.578h0.422
		v7.652h-0.422c-0.09-0.838-0.268-1.518-0.551-2.053c-0.271-0.529-0.6-0.881-0.971-1.07c-0.361-0.186-0.896-0.27-1.607-0.27v4.112
		c0,0.804,0.033,1.298,0.107,1.479c0.065,0.174,0.194,0.312,0.383,0.438c0.186,0.109,0.494,0.173,0.908,0.173h0.883
		c1.371,0,2.479-0.318,3.305-0.947c0.826-0.637,1.428-1.594,1.783-2.887h0.4l-0.652,4.645h-12.727v-0.387h0.483
		c0.424,0,0.771-0.072,1.025-0.224c0.188-0.102,0.338-0.278,0.438-0.521c0.076-0.176,0.117-0.635,0.117-1.367v-9.617
		c0-0.664-0.018-1.082-0.051-1.229c-0.074-0.252-0.205-0.453-0.402-0.586c-0.278-0.205-0.645-0.304-1.127-0.304h-0.483v-0.383
		h12.315v4.328H188.8c-0.211-1.06-0.504-1.812-0.893-2.276c-0.371-0.455-0.91-0.794-1.605-1.009c-0.405-0.137-1.164-0.2-2.278-0.2
		H182.506L182.506,88.055z"/>
	<path fill="#FFFFFF" d="M208.223,101.828v-0.377h0.476c0.41,0,0.735-0.076,0.955-0.205c0.225-0.135,0.387-0.324,0.494-0.547
		c0.062-0.156,0.096-0.605,0.096-1.369v-9.584c0-0.752-0.035-1.227-0.111-1.414c-0.082-0.182-0.242-0.352-0.479-0.494
		c-0.229-0.141-0.56-0.207-0.955-0.207h-0.476v-0.383h6.445c1.73,0,3.109,0.236,4.164,0.715c1.285,0.578,2.25,1.455,2.918,2.627
		c0.664,1.184,0.994,2.508,0.994,3.99c0,1.021-0.168,1.971-0.488,2.834c-0.326,0.861-0.748,1.57-1.266,2.137
		c-0.521,0.561-1.113,1.014-1.793,1.355c-0.678,0.34-1.504,0.596-2.484,0.789c-0.436,0.086-1.117,0.133-2.045,0.133H208.223z
		 M213.719,88.055V99.43c0,0.605,0.025,0.98,0.09,1.113l0.279,0.309c0.188,0.111,0.465,0.166,0.826,0.166
		c1.186,0,2.088-0.414,2.705-1.227c0.852-1.102,1.27-2.814,1.27-5.145c0-1.869-0.284-3.359-0.858-4.479
		c-0.463-0.875-1.056-1.472-1.779-1.785C215.748,88.162,214.902,88.049,213.719,88.055"/>
	<path fill="#FFFFFF" d="M264.666,86.57v5.145h-0.381c-0.488-1.404-1.213-2.469-2.18-3.209c-0.979-0.725-2.039-1.098-3.189-1.098
		c-1.098,0-2.02,0.305-2.746,0.918c-0.734,0.617-1.25,1.477-1.555,2.568c-0.297,1.1-0.451,2.225-0.451,3.377
		c0,1.395,0.162,2.627,0.49,3.674c0.336,1.051,0.875,1.83,1.606,2.33c0.74,0.496,1.623,0.74,2.634,0.74
		c0.358,0,0.717-0.033,1.092-0.113c0.367-0.076,0.754-0.187,1.131-0.328v-3.037c0-0.578-0.031-0.951-0.113-1.117
		c-0.084-0.184-0.242-0.332-0.496-0.471c-0.244-0.133-0.547-0.201-0.896-0.201h-0.388v-0.385h7.164v0.385
		c-0.545,0.033-0.926,0.104-1.137,0.223c-0.211,0.113-0.383,0.299-0.488,0.557c-0.067,0.136-0.098,0.474-0.098,1.011v3.037
		c-0.947,0.409-1.92,0.723-2.938,0.928c-1.015,0.217-2.064,0.326-3.166,0.326c-1.394,0-2.552-0.19-3.472-0.57
		c-0.924-0.373-1.729-0.868-2.447-1.481c-0.698-0.607-1.252-1.299-1.645-2.064c-0.512-0.994-0.764-2.102-0.764-3.322
		c0-2.188,0.778-4.049,2.336-5.549c1.557-1.516,3.516-2.27,5.879-2.27c0.727,0,1.393,0.061,1.975,0.164
		c0.318,0.059,0.836,0.231,1.556,0.498c0.709,0.264,1.131,0.401,1.256,0.401c0.203,0,0.393-0.073,0.565-0.227
		c0.174-0.148,0.338-0.429,0.482-0.839H264.666L264.666,86.57z"/>
	<path fill="#FFFFFF" d="M85.635,110.875v4.041h-0.342c-0.252-1.049-0.721-1.869-1.402-2.424c-0.69-0.562-1.463-0.842-2.327-0.842
		c-0.724,0-1.39,0.209-1.998,0.617c-0.605,0.422-1.041,0.977-1.328,1.643c-0.363,0.865-0.535,1.818-0.535,2.883
		c0,1.041,0.127,1.994,0.395,2.834c0.257,0.861,0.671,1.512,1.229,1.943c0.562,0.438,1.287,0.662,2.178,0.662
		c0.728,0,1.398-0.168,2.006-0.488c0.604-0.318,1.252-0.869,1.929-1.65v1.002c-0.654,0.674-1.332,1.174-2.037,1.478
		c-0.707,0.303-1.533,0.461-2.472,0.461c-1.241,0-2.348-0.254-3.307-0.754c-0.967-0.492-1.701-1.207-2.229-2.14
		c-0.525-0.928-0.785-1.912-0.785-2.965c0-1.117,0.291-2.162,0.869-3.164c0.584-0.988,1.362-1.762,2.352-2.309
		c0.982-0.545,2.033-0.828,3.139-0.828c0.816,0,1.677,0.186,2.588,0.537c0.527,0.201,0.863,0.314,1.005,0.314
		c0.18,0,0.34-0.072,0.473-0.203c0.141-0.142,0.221-0.354,0.262-0.648H85.635z"/>
	<path fill="#FFFFFF" d="M100.07,111.814v4.737h0.229c0.738,0,1.275-0.229,1.615-0.692c0.326-0.471,0.535-1.146,0.629-2.053h0.322
		v6.079h-0.322c-0.062-0.663-0.217-1.206-0.432-1.625c-0.224-0.422-0.478-0.715-0.773-0.854c-0.291-0.141-0.717-0.219-1.268-0.219
		v3.271c0,0.642,0.024,1.033,0.073,1.176l0.31,0.355c0.146,0.084,0.389,0.131,0.725,0.131h0.688c1.09,0,1.965-0.242,2.617-0.756
		c0.651-0.494,1.127-1.265,1.409-2.296h0.32l-0.523,3.697H95.629v-0.322h0.391c0.336,0,0.607-0.065,0.814-0.176
		c0.15-0.082,0.264-0.219,0.344-0.42c0.062-0.127,0.094-0.502,0.094-1.076v-7.635c0-0.527-0.014-0.85-0.047-0.969
		c-0.055-0.199-0.162-0.355-0.315-0.467c-0.215-0.158-0.513-0.234-0.89-0.234h-0.391v-0.324h9.74v3.439h-0.318
		c-0.168-0.836-0.399-1.445-0.701-1.807c-0.297-0.367-0.725-0.64-1.272-0.81c-0.318-0.108-0.926-0.153-1.799-0.153h-1.208V111.814z"
		/>
	<path fill="#FFFFFF" d="M120.244,111.145l5.748,7.211v-4.996c0-0.698-0.104-1.168-0.308-1.414
		c-0.272-0.336-0.733-0.493-1.377-0.477v-0.324h3.834v0.324c-0.487,0.059-0.819,0.135-0.987,0.244
		c-0.168,0.102-0.304,0.258-0.396,0.484c-0.09,0.223-0.135,0.606-0.135,1.162v9.674h-0.295l-7.879-9.695v7.408
		c0,0.668,0.158,1.115,0.461,1.355c0.307,0.229,0.66,0.344,1.055,0.344h0.271v0.322h-4.121v-0.322
		c0.645-0.004,1.084-0.139,1.338-0.387c0.254-0.269,0.379-0.699,0.379-1.312v-8.199l-0.246-0.314
		c-0.248-0.303-0.461-0.506-0.656-0.606c-0.188-0.099-0.463-0.144-0.813-0.156v-0.323h4.128V111.145z"/>
	<path fill="#FFFFFF" d="M148.391,111.145v3.146h-0.319c-0.187-0.727-0.384-1.25-0.607-1.564c-0.219-0.315-0.522-0.576-0.91-0.756
		c-0.217-0.111-0.592-0.149-1.135-0.149h-0.871v8.952c0,0.593,0.035,0.963,0.099,1.113c0.069,0.148,0.194,0.285,0.389,0.385
		c0.19,0.117,0.451,0.175,0.783,0.175h0.385v0.321h-6.092v-0.321h0.383c0.338,0,0.604-0.058,0.809-0.177
		c0.148-0.082,0.271-0.219,0.351-0.42c0.069-0.131,0.098-0.5,0.098-1.076v-8.952h-0.846c-0.781,0-1.351,0.161-1.701,0.495
		c-0.496,0.461-0.814,1.121-0.943,1.976h-0.325v-3.146h10.455V111.145z"/>
	<path fill="#FFFFFF" d="M162.576,117.477v3.246c0,0.637,0.041,1.029,0.119,1.191c0.071,0.16,0.203,0.281,0.396,0.393
		c0.199,0.096,0.556,0.142,1.094,0.142v0.319h-5.946v-0.319c0.537,0,0.903-0.052,1.096-0.152c0.189-0.104,0.326-0.225,0.41-0.381
		c0.072-0.162,0.104-0.556,0.104-1.19v-7.541c0-0.621-0.032-1.023-0.104-1.181c-0.084-0.168-0.221-0.289-0.41-0.394
		c-0.199-0.092-0.559-0.141-1.096-0.141v-0.324h5.399c1.412,0,2.443,0.101,3.095,0.291c0.641,0.197,1.182,0.56,1.59,1.086
		c0.414,0.521,0.615,1.131,0.615,1.84c0,0.851-0.306,1.56-0.929,2.117c-0.389,0.359-0.942,0.617-1.643,0.797l2.778,3.935
		c0.367,0.511,0.632,0.822,0.787,0.947c0.236,0.174,0.504,0.274,0.812,0.291v0.319h-3.658l-3.752-5.291H162.576L162.576,117.477z
		 M162.576,111.77v5.095h0.488c0.799,0,1.395-0.078,1.786-0.222c0.4-0.149,0.709-0.41,0.933-0.783
		c0.223-0.389,0.338-0.889,0.338-1.498c0-0.875-0.205-1.541-0.615-1.963c-0.424-0.416-1.086-0.629-2.018-0.629H162.576z"/>
	<path fill="#FFFFFF" d="M183.887,111.814v4.737h0.228c0.744,0,1.285-0.229,1.604-0.692c0.338-0.471,0.551-1.146,0.646-2.053h0.317
		v6.079h-0.317c-0.072-0.663-0.217-1.206-0.441-1.625c-0.219-0.422-0.473-0.715-0.77-0.854c-0.289-0.141-0.718-0.219-1.267-0.219
		v3.271c0,0.642,0.019,1.033,0.08,1.176l0.301,0.355c0.146,0.084,0.394,0.131,0.726,0.131h0.692c1.091,0,1.951-0.242,2.609-0.756
		c0.66-0.494,1.125-1.265,1.416-2.296h0.314l-0.523,3.697h-10.053v-0.322h0.389c0.336,0,0.605-0.065,0.812-0.176
		c0.145-0.082,0.264-0.219,0.34-0.42c0.063-0.127,0.094-0.502,0.094-1.076v-7.635c0-0.527-0.01-0.85-0.035-0.969
		c-0.062-0.199-0.17-0.355-0.321-0.467c-0.216-0.158-0.517-0.234-0.89-0.234h-0.389v-0.324h9.738v3.439h-0.328
		c-0.156-0.836-0.396-1.445-0.689-1.807c-0.299-0.367-0.727-0.64-1.276-0.81c-0.322-0.108-0.923-0.153-1.81-0.153h-1.197V111.814z"
		/>
	<path fill="#FFFFFF" d="M207.84,110.875l0.082,3.877h-0.344c-0.168-0.971-0.574-1.754-1.225-2.342
		c-0.65-0.596-1.354-0.887-2.111-0.887c-0.588,0-1.049,0.153-1.392,0.465c-0.344,0.313-0.508,0.668-0.508,1.074
		c0,0.256,0.056,0.487,0.174,0.686c0.164,0.264,0.435,0.529,0.804,0.795c0.27,0.188,0.889,0.523,1.869,1.004
		c1.362,0.664,2.286,1.297,2.76,1.887c0.461,0.597,0.697,1.279,0.697,2.045c0,0.972-0.377,1.806-1.138,2.506
		c-0.754,0.699-1.721,1.05-2.889,1.05c-0.361,0-0.713-0.039-1.037-0.115c-0.322-0.074-0.731-0.219-1.225-0.422
		c-0.277-0.117-0.509-0.172-0.683-0.172l-0.477,0.172c-0.158,0.114-0.293,0.299-0.396,0.537h-0.323v-4.392h0.323
		c0.255,1.226,0.734,2.166,1.445,2.814c0.719,0.652,1.496,0.975,2.326,0.975c0.643,0,1.149-0.178,1.535-0.529
		c0.377-0.35,0.565-0.752,0.565-1.217c0-0.27-0.074-0.535-0.223-0.787c-0.146-0.258-0.363-0.5-0.66-0.741
		c-0.307-0.232-0.828-0.527-1.588-0.896c-1.062-0.525-1.82-0.963-2.281-1.33c-0.459-0.369-0.815-0.774-1.065-1.217
		c-0.246-0.453-0.371-0.949-0.371-1.496c0-0.932,0.342-1.709,1.024-2.367c0.679-0.646,1.537-0.977,2.572-0.977
		c0.379,0,0.744,0.059,1.103,0.146c0.27,0.067,0.6,0.188,0.983,0.379c0.385,0.182,0.654,0.276,0.812,0.276l0.352-0.139
		c0.088-0.088,0.168-0.312,0.24-0.664L207.84,110.875L207.84,110.875z"/>
	<rect x="8.826" y="105.521" fill="#FFFFFF" width="265.672" height="1.461"/>
	<rect x="5.83" y="105.521" fill="#FFFFFF" width="1.486" height="1.461"/>
	<polygon fill="#FFCD4F" points="199.059,74.977 199.639,73.633 200.498,73.633 200.498,73.688 200.436,73.688 200.279,73.721 
		200.217,73.793 200.201,73.984 200.201,75.322 200.217,75.518 200.289,75.588 200.436,75.609 200.498,75.609 200.498,75.662 
		199.389,75.662 199.389,75.609 199.455,75.609 199.613,75.578 199.666,75.51 199.688,75.322 199.688,73.814 198.873,75.662 
		198.832,75.662 198.004,73.826 198.004,75.252 198.016,75.441 198.105,75.568 198.318,75.609 198.318,75.662 197.592,75.662 
		197.592,75.609 197.619,75.609 197.746,75.594 197.84,75.533 197.889,75.414 197.889,75.26 197.889,73.984 197.871,73.793 
		197.801,73.721 197.658,73.688 197.592,73.688 197.592,73.633 198.461,73.633 	"/>
	<polygon fill="#FFCD4F" points="197.537,73.609 197.537,74.164 197.469,74.164 197.357,73.895 197.182,73.752 196.959,73.736 
		196.795,73.736 196.795,75.316 196.816,75.51 196.883,75.578 197.041,75.609 197.119,75.609 197.119,75.662 195.941,75.662 
		195.941,75.609 196.014,75.609 196.172,75.574 196.232,75.502 196.254,75.316 196.254,73.736 196.096,73.736 195.771,73.82 
		195.588,74.164 195.523,74.164 195.523,73.609 	"/>
	<rect x="92.389" y="69.484" fill="#FFCD4F" width="94.438" height="0.828"/>
	<rect x="89.928" y="70.736" fill="#FFCD4F" width="99.412" height="1.139"/>
	<rect x="87.57" y="72.402" fill="#FFE8B6" width="104.078" height="1.258"/>
	<rect x="84.795" y="74.164" fill="#FFF2D4" width="109.627" height="1.477"/>
	<rect x="93.357" y="20.15" fill="#FFCD4F" width="7.2" height="48.311"/>
	<polygon fill="#FFF2D4" points="139.453,5.762 82.797,19.387 196.342,19.387 139.492,5.747 	"/>
	<polygon fill="#FFE8B6" points="93.391,20.185 96.986,22.058 100.539,20.15 	"/>
	<polygon fill="#FFE8B6" points="100.539,68.447 96.938,66.574 93.391,68.479 	"/>
	<polygon fill="#FFF2D4" points="96.986,22.058 96.986,66.574 100.559,68.461 100.559,20.176 	"/>
	<rect x="110.355" y="20.15" fill="#FFCD4F" width="7.19" height="48.311"/>
	<polygon fill="#FFE8B6" points="110.379,20.185 113.979,22.058 117.52,20.15 	"/>
	<polygon fill="#FFE8B6" points="117.518,68.447 113.924,66.574 110.379,68.479 	"/>
	<polygon fill="#FFF2D4" points="113.979,22.058 113.979,66.574 117.541,68.461 117.541,20.176 	"/>
	<rect x="127.5" y="20.15" fill="#FFCD4F" width="7.189" height="48.311"/>
	<polygon fill="#FFE8B6" points="127.525,20.185 131.119,22.058 134.666,20.15 	"/>
	<polygon fill="#FFE8B6" points="134.664,68.447 131.068,66.574 127.525,68.479 	"/>
	<polygon fill="#FFF2D4" points="131.119,22.058 131.119,66.574 134.689,68.461 134.689,20.176 	"/>
	<rect x="144.521" y="20.15" fill="#FFCD4F" width="7.192" height="48.311"/>
	<polygon fill="#FFE8B6" points="144.547,20.185 148.137,22.058 151.689,20.15 	"/>
	<polygon fill="#FFE8B6" points="151.689,68.447 148.084,66.574 144.547,68.479 	"/>
	<polygon fill="#FFF2D4" points="148.145,22.058 148.145,66.574 151.715,68.461 151.715,20.176 	"/>
	<rect x="161.615" y="20.15" fill="#FFCD4F" width="7.197" height="48.311"/>
	<polygon fill="#FFF0D0" points="161.643,20.185 165.234,22.058 168.781,20.15 	"/>
	<polygon fill="#FFE8B6" points="168.781,68.447 165.186,66.574 161.641,68.479 	"/>
	<polygon fill="#FFF2D4" points="165.234,22.058 165.234,66.574 168.812,68.461 168.812,20.176 	"/>
	<rect x="178.604" y="20.167" fill="#FFCD4F" width="7.197" height="48.312"/>
	<polygon fill="#FFE8B6" points="178.637,20.191 182.23,22.068 185.775,20.168 	"/>
	<polygon fill="#FFE8B6" points="185.777,68.461 182.182,66.584 178.631,68.488 	"/>
	<polygon fill="#FFF2D4" points="182.23,22.068 182.23,66.586 185.801,68.479 185.801,20.185 	"/>
	<polygon fill="#FFE3A7" points="139.629,8.475 139.512,5.729 196.447,19.425 82.752,19.37 107.514,16.482 	"/>
	<polygon fill="#FFCD4F" points="139.629,8.475 107.514,16.482 171.459,16.435 	"/>
</g>
</svg>
